<?xml version="1.0" encoding="UTF-8"?><svg width="214" height="143" viewBox="0 0 214 143" fill="none" xmlns="http://www.w3.org/2000/svg">
<path fill-rule="evenodd" clip-rule="evenodd" d="M212.915 8.99053C206.174 37.2944 188.953 126.385 186.315 140.104C185.549 144.071 181.288 142.39 180.175 140.838C175.231 133.929 169.662 133.821 170.287 129.226C173.386 106.354 184.541 48.9717 187.448 35.4486C172.613 66.1681 157.24 104.568 149.347 126.341C147.67 130.964 144.623 130.625 142.724 127.242C140.054 122.49 134.874 120.065 134.018 114.45C131.306 96.5947 137.116 62.5643 137.926 41.0337C129.853 64.5515 116.299 110.214 110.362 130.843C107.908 139.38 99.7593 137.987 101.925 129.667C110.948 95.0451 130.379 33.8136 138.794 11.7927C140.771 6.62009 145.95 6.79747 150.252 4.65462C157.995 0.797324 161.839 1.31024 161.923 5.20686C162.032 10.2774 161.289 16.9996 160.759 21.8811C157.886 48.3609 153.075 70.0011 152.71 97.1938C165.366 64.0804 175.983 41.068 189.646 12.7181C193.989 3.69908 196.755 5.37671 200.319 3.77355C214.21 -2.47343 214.73 1.36379 212.915 8.99053ZM86.1675 4.71487C90.8357 3.90743 98.4258 -0.23854 101.05 0.39988C103.507 0.997301 103.307 3.92667 101.805 7.92705C97.3735 19.7299 91.2287 35.2377 84.202 53.5218C88.6195 53.0114 91.0152 52.8399 91.0152 52.8399C97.357 52.0483 98.5383 55.2522 96.7523 58.6635C95.3294 61.3828 93.617 59.5697 87.6822 68.5101C84.3393 73.5471 78.8802 74.8775 75.8483 75.5494C68.5437 95.0919 60.7178 116.891 53.112 140.125C52.0052 143.508 48.7723 142.767 47.8002 141.392C44.2281 136.351 41.5942 136.184 38.8253 132.107C38.4928 131.447 37.8409 130.549 38.233 128.931C40.2681 120.522 45.675 103.242 53.8979 80.4919C43.539 82.7611 32.3314 85.2002 27.7045 86.2871C22.152 101.12 16.7368 115.999 11.6061 130.697C8.42287 139.815 0.13873 138.052 3.04571 129.434C7.67668 115.707 12.7883 101.45 17.914 87.6242C12.1761 87.005 10.2346 82.9092 7.02729 79.4879C5.78889 78.1658 3.08955 78.3516 1.76677 76.4983C-0.611591 73.1689 -0.374169 71.6904 5.11715 70.089C12.2817 67.9979 19.4875 66.0541 26.73 64.2587C36.011 40.0522 44.3977 19.2873 48.869 8.20652C52.3154 -0.331417 61.1993 0.463471 57.8249 8.88594C50.967 26.0036 43.9353 43.7865 36.9946 61.8188C45.5534 59.8702 54.1605 58.146 62.8075 56.6478C69.1465 40.2004 75.8044 23.8806 82.7774 7.69779C83.2655 6.56821 84.6867 4.97007 86.1683 4.71403L86.1675 4.71487ZM83.56 83.9827C88.7668 77.7374 100.848 83.2807 94.7371 92.8947C93.2645 95.2108 91.5438 97.3979 89.7487 99.6153C90.3435 101.528 90.9863 103.556 91.6291 105.55C92.1712 105.018 92.7265 104.5 93.2943 103.996C97.103 100.661 100.74 103.97 96.9748 109.609C96.112 110.91 95.202 112.178 94.2465 113.411C94.723 114.783 95.1474 115.962 95.4849 116.838C97.4314 121.883 92.319 123.147 90.6703 118.969C90.5271 118.604 90.3766 118.212 90.2219 117.806C87.1147 120.588 83.5211 122.339 79.6802 121.132C73.3616 119.146 71.7542 110.156 77.6534 103.229C80.0202 100.45 81.8013 98.5225 83.2895 96.9821C82.9247 95.7879 82.575 94.5891 82.2405 93.3859C81.4745 90.5812 80.7829 87.3129 83.56 83.9827ZM85.7026 104.668C85.1682 105.362 84.6363 106.066 84.1151 106.788C81.0079 111.1 82.8477 112.635 85.1566 111.208C85.8863 110.757 86.6126 110.208 87.329 109.605C86.7773 107.963 86.2351 106.317 85.7026 104.668ZM89.2904 90.7661C93.1371 86.3766 85.5322 84.5392 87.2835 91.2531C87.3811 91.6321 87.5035 92.0772 87.6409 92.5667C88.1753 92.0069 88.7163 91.4204 89.2904 90.7661Z" fill="rgb(205, 32, 38)"/>
</svg>
